<?xml version="1.0" encoding="UTF-8"?>
<svg version="1.1" viewBox="0 0 2048 669" width="1280" height="1280" xmlns="http://www.w3.org/2000/svg">
<path transform="translate(890,126)" d="m0 0h239l-2 4-16 21-12 16-12 15-12 16-10 13-6 1h-118l-59 1-17 3-15 5-15 8-11 9-7 7-9 14-5 14-2 12v13l3 15 6 14 9 12 10 9 15 9 16 6 16 3 9 1 133 1v-46h-167v-3l13-15 8-10 11-13 9-11 14-17 4-5h208l1 1v203h-247l-27-4-23-6-19-7-19-9-17-11-14-11-18-18-12-16-9-16-8-20-5-21-2-14v-26l3-19 6-21 6-14 11-18 9-11 5-6 3-3h2l1-3 11-9 14-10 17-10 19-8 26-8 28-5 9-1z" fill="#050A74"/>
<path transform="translate(1307,126)" d="m0 0h290l-2 4-14 19-14 18-10 13-9 12-10 13-5 6-2 1h-147l-91 1-10 3-6 4-3 6-1 10 2 8 5 6 9 4 7 1 194 1 28 2 25 5 16 6 14 8 10 8 9 10 8 15 4 13 2 13v22l-3 19-5 15-8 15-9 11-9 8-11 7-14 7-15 5-18 4-23 3-327 1v-4l42-54 10-13 7-9 4-5 257-1 12-3 7-5 4-10v-9l-3-8-6-5-7-3-6-1-196-1-25-2-20-4-18-6-15-8-10-8-10-10-8-13-5-12-3-12-1-8v-23l3-18 5-13 7-13 11-13 14-11 16-8 16-6 24-5 15-2z" fill="#050A74"/>
<path transform="translate(2023,126)" d="m0 0h4l-2 5-20 26-13 17-14 18-10 13-4 6-2 1h-210v37l258 1v2l-5 5-10 13-33 42-9 12-2 1h-199v43h277l-6 9-22 28-30 39-6 8h-315v-325z" fill="#04AA0D"/>
<path transform="translate(303,104)" d="m0 0h32l16 3 18 6 17 9 12 9 12 11 8 9 7 10 10 19 6 20 2 12 1 20-2 20-7 3-10 2 1-10 1-11h-39l-4 31-5 3-13 7 1-11 3-17 1-14-43 1-1 91-3 12 6-15 7-13 8-10 6-7 13-10 14-8 16-6 22-5 28-7 20-8 15-8 11-8 10-9 10-11 8-14 4-12 1-5h2l2 14 1 14v35l-2 17-4 20-6 18-8 17-10 15-9 11-10 10-13 10-15 9-17 8-24 8-24 5-16 2-16 1h-15l1-5 9-15 10-13 13-13 13-9 16-8 26-9 17-9 16-12 2-2-14 8-16 6-16 4-25 5-15 5-14 7-14 10-15 15-7 10-5 9-5-5-7-11-9-10-9-9-15-10-17-8-23-6-17-3-20-6-16-8-7-4 11 9 16 10 17 8 21 7 17 9 12 9 7 6 9 11 10 15 5 9-1 3h-15l-25-2-22-4-22-6-19-8-17-9-14-10-13-12-9-10-7-10-9-16-6-14-6-21-3-16-1-11v-41l2-25 2 1 5 15 7 13 8 10 4 4v2l4 2 8 7 14 9 16 8 24 8 36 8 17 6 14 7 13 10 12 12 10 15 3 7v-90l-43-1 3 25 4 17-5-1-13-7-2-5-3-24-1-5h-39l2 15 1 7-9-1-8-3-2-11v-29l3-16 6-18 10-19 8-11 9-10 9-8 13-9 19-10 15-5zm24 17v42l1 1 16-1 13-3 1-2-7-14-8-11-8-8-6-4zm-16 0-9 6-9 10-8 13-4 9 8 3 15 2h8v-43zm47 5 2 5 8 14 5 10 5-1 12-5 2-3-12-9-16-9zm-78 0-16 8-12 8-5 5 16 8h3l10-19 6-9zm122 33-17 8-6 3 5 25 3 25h37l4-1-2-16-6-18-9-17-7-9zm-168 1-10 15-7 16-5 19v9l8 1h31l2-6 3-22 4-18-1-5-21-9zm41 15-4 15-3 17v12l1 1h40l3-2v-37l-2-2-29-4zm83 0-29 4-2 1v39l1 1h41l2-1v-11l-3-20-3-12-1-1zm107 124m-1 1m-152 28 1 3zm1 3 1 3zm1 3 1 3zm1 4m1 3 2 11 2 5h1v-8h-2l-1-6zm5 6 1 2z" fill="#04AA0D"/>
<path transform="translate(303,104)" d="m0 0h32l16 3 18 6 17 9 12 9 12 11 8 9 7 10 10 19 6 20 2 12 1 20-2 20-7 3-10 2 1-10 1-11h-39l-4 31-5 3-13 7 1-11 3-17 1-14-43 1-1 91-4 15-2 7h-2l-7-21-1-92-43-1 3 25 4 17-5-1-13-7-2-5-3-24-1-5h-39l2 15 1 7-9-1-8-3-2-11v-29l3-16 6-18 10-19 8-11 9-10 9-8 13-9 19-10 15-5zm24 17v42l1 1 16-1 13-3 1-2-7-14-8-11-8-8-6-4zm-16 0-9 6-9 10-8 13-4 9 8 3 15 2h8v-43zm47 5 2 5 8 14 5 10 5-1 12-5 2-3-12-9-16-9zm-78 0-16 8-12 8-5 5 16 8h3l10-19 6-9zm122 33-17 8-6 3 5 25 3 25h37l4-1-2-16-6-18-9-17-7-9zm-168 1-10 15-7 16-5 19v9l8 1h31l2-6 3-22 4-18-1-5-21-9zm41 15-4 15-3 17v12l1 1h40l3-2v-37l-2-2-29-4zm83 0-29 4-2 1v39l1 1h41l2-1v-11l-3-20-3-12-1-1z" fill="#050A74"/>
<path transform="translate(159,3)" d="m0 0h3l-1 8-3 12-8 16-7 8-14 9-10 9-9 11-10 12-12 18-12 21-9 18 10-6 13-4 14-2h13l-2 4-9 11-12 9-8 4-13 3h-13l-7 25-4 21-2 13-1 14v29l1 17 1 6 7-14 11-12 12-9 6-4h3v8l-4 15-6 12-9 10-5 4-9 4h-4l7 28 6 18 10 23 11 21 1-14 4-15 9-17 2-3 3 1 5 19 1 14-3 14-5 10-5 5h-2l7 11 11 13 9 10 16 16 11 9 10 8-5-15-2-11v-21l5 2 12 12 8 13 4 14v10l-2 8 5 4 16 8-1 6-1 2-6-1-21-12-19-13-16-13-11-10-12 2h-12l-16-4-16-8-7-5v-2l13-4 5-1h24l-13-17-10-15-11-19-7-14h-20l-15-5-13-8-11-9 1-2 10-2h20l10 2 10 5-8-26-5-23-3-23-1-19v-21l1-12-6-2-8-6-5-5-7-9-7-14-4-12 1-3 11 4 14 9 8 7 5 8 8-32 7-21 11-25 13-24-7-11-4-10-2-11v-11l3-18 2-4 5 4 9 15 4 11 3 17 8-10 12-14 7-8 4-14 5-9 7-9 9-8 13-8zm-69 82 1 2z" fill="#070C75"/>
<path transform="translate(479,3)" d="m0 0 6 2 13 9 8 7 6 8 6 12 3 11 9 10 10 11 9 12v-8l3-14 8-16 7-10 3 1 3 16v21l-3 12-6 11-3 3 2 5 12 22 12 29 6 19 5 22v7h2l2-5 12-12 14-8 9-4h2l-3 12-5 12-8 12-9 9-11 6v33l-1 19-4 28-6 25-6 18 14-5 6-1h21l10 2-1 3-13 10-15 8-12 3h-18l-13 25-7 11-13 19-9 10v1l4-1h20l17 4 2 1-1 3-14 8-11 5-14 3h-11l-8-2-5 1-10 9-11 9-18 13-26 15-4 2-4-1-1-6 4-3 14-7 3-3-2-7v-13l5-14 7-11 14-14h2v26l-4 15-2 6 17-14 13-12 15-15 11-14 6-9v-3l-5-5-5-10-2-6-1-7 1-16 4-15 2-4 3 1 9 17 4 13 1 5v12l-1 2h2l2-5 10-19 8-19 8-24 5-21 1-2-10-3-11-8-8-11-5-12-4-18v-2l5 1 12 8 12 11 7 10 4 8 2-26v-18l-2-26-4-23-7-28-1-3h-15l-12-3-12-7-12-11-6-8v-2h13l14 2 15 5 7 4-10-21-13-22-14-19-13-15-12-12-10-6-7-6-8-12-5-14-2-13z" fill="#060B75"/>
<path transform="translate(159,3)" d="m0 0h3l-1 8-3 12-8 16-7 8-14 9-10 9-9 11-10 12-12 18-12 21-9 18 10-6 13-4 14-2h13l-2 4-9 11-12 9-8 4-13 3h-13l-7 25-4 21-3 17h-1l-2-15-2-5 1-11 6-24 7-21 11-25 13-24-7-11-4-10-2-11v-11l3-18 2-4 5 4 9 15 4 11 3 17 8-10 12-14 7-8 4-14 5-9 7-9 9-8 13-8zm-69 82 1 2z" fill="#060B74"/>
<path transform="translate(1824,557)" d="m0 0h16l3 5 11 29 2 5 2-3 13-32 3-4h15l1 1v57h-15l-1-28-11 27-2 2h-8l-3-2-11-28-1-2v25l-1 6-4 1-9-1z" fill="#050A74"/>
<path transform="translate(744,557)" d="m0 0h13l3 3 13 20 7 11 1 1 1-35h13l1 1v51l-2 7h-10l-5-3-12-18-9-13-1 33-3 1-11-1v-57z" fill="#050A74"/>
<path transform="translate(1943,557)" d="m0 0h13l7 9 11 17 6 9 1-35h13l1 1v57l-6 1-9-1-13-19-9-13v-2h-2v34l-5 1-9-1v-56z" fill="#070C75"/>
<path transform="translate(465,557)" d="m0 0h14l8 11 14 22 1 2 1-33 1-2h13v58l-1 1h-11l-5-5-8-11-12-18-1 33-5 1-9-1z" fill="#090E76"/>
<path transform="translate(1761,557)" d="m0 0h14l8 11 15 23h1v-33l1-1h12l1 1v57l-5 1h-7l-5-5-12-17-8-12-1 33-5 1-9-1z" fill="#060B74"/>
<path transform="translate(1502,557)" d="m0 0h13l3 3 21 32 1-35h13l1 1v57l-6 1-8-1-8-10-10-15-5-8-2-1 1 4v15l-1 15-5 1-8-1-1-15v-21z" fill="#070C75"/>
<path transform="translate(171,557)" d="m0 0h32l7 3 5 5 2 6-1 6-4 6-3 3 7 6 2 4v7l-3 6-6 5-12 2h-25l-1-1zm14 11v12l1 1h9l6-2 1-5-2-5-3-1zm1 23-1 1v11l1 1h13l4-3v-7l-2-2z" fill="#070C75"/>
<path transform="translate(829,556)" d="m0 0 11 1 8 3 6 5 4 7v4h-13l-8-5h-12l-6 5-2 6v9l4 8 4 3 8 1 9-3 4-5v-1l-17-1-1-2v-7l1-1h30l1 1v11l-3 8-6 7-10 5-6 1h-9l-10-3-9-8-5-10-1-10 2-11 6-9 9-6 5-2z" fill="#060B74"/>
<path transform="translate(32,556)" d="m0 0 11 1 9 4 7 7 2 4v4h-14l-7-5h-12l-4 2-4 8v11l3 6 5 4 7 1 9-3 4-4 1-3h-17l-1-1v-9h31l1 8-2 10-9 10-8 4-5 1h-10l-10-3-7-5-6-10-1-3v-18l5-10 8-7 8-3z" fill="#060B74"/>
<path transform="translate(131,556)" d="m0 0 13 1 8 4 5 4 6 10 2 9-1 11-5 10-8 7-6 3-5 1h-12l-9-3-9-8-5-10-1-11 2-10 6-9 8-6zm-1 13-7 4-4 8v11l3 6 4 4 3 1h10l7-4 4-8v-10l-3-6-6-5-3-1z" fill="#060B74"/>
<path transform="translate(950,556)" d="m0 0 13 1 8 4 7 6 5 10 1 5v9l-3 9-4 6-7 6-10 4h-13l-9-3-9-8-4-8-1-3v-16l5-10 5-5 5-4 5-2zm-1 13-6 3-4 7-1 3v9l4 8 6 4h11l6-4 4-7v-12l-5-8-6-3z" fill="#050A74"/>
<path transform="translate(425,556)" d="m0 0 13 1 9 5 7 7 4 9 1 9-2 10-4 8-8 7-6 3-5 1h-13l-9-4-8-7-5-9-1-13 2-9 7-10 9-6zm-1 13-6 3-4 6-1 3v11l3 6 4 4 3 1h10l7-4 4-8v-10l-3-6-6-5-3-1z" fill="#060B74"/>
<path transform="translate(1722,556)" d="m0 0 11 1 9 4 5 4 6 10 2 9-1 10-4 9-6 7-9 5-4 1h-14l-9-4-8-7-5-10v-18l4-8 6-7 10-5zm-2 13-6 3-5 8v12l3 6 5 4 2 1h10l7-4 4-8v-10l-3-6-6-5-3-1z" fill="#050A74"/>
<path transform="translate(1394,556)" d="m0 0h12l8 4 4 7v4h-13l-2-4-6 1-1 5 7 8 10 10 3 1 1-6 1-1h14l-2 6-5 9v4l4 2 8 8v1h-17l-2-4-13 5-12 1-8-2-6-4-4-5-1-3v-9l3-6 7-6-1-5-1-2v-8l4-6 5-4zm-3 34-3 4v6l5 5h9l4-2-2-4-7-8z" fill="#050A74"/>
<path transform="translate(990,557)" d="m0 0h29l9 3 6 7 2 5v7l-4 8-5 4-3 1 2 5 9 16v3l-15-1-12-20-3-1-1 21-3 1h-9l-2-1zm15 12-1 1v13l1 1h9l5-2 2-3v-6l-3-4z" fill="#060B74"/>
<path transform="translate(1644,557)" d="m0 0h28l8 2 5 4 4 8v10l-4 6-5 4-3 2 12 21-1 2-15-1-11-19-3-2-1 21-13 1-1-1zm14 12v14l1 1h8l6-2 2-6-2-5-2-2z" fill="#050A74"/>
<path transform="translate(577,557)" d="m0 0h14l1 1v35l2 7 2 2h10l4-4 1-3 1-38h13l1 1v40l-3 8-7 7-9 3h-13l-10-5-6-9-1-3z" fill="#050A74"/>
<path transform="translate(243,557)" d="m0 0h16l4 8 16 45 1 5-5 1-10-1-3-9h-23l-1 8-3 2-13-1 3-9 14-40zm8 17-4 10-3 8v3h14l-2-10-3-10z" fill="#050A74"/>
<path transform="translate(1127,557)" d="m0 0h15l2 1 14 40 6 17-1 1-14-1-4-9h-22l-3 9-4 1-11-1 2-6 11-30 7-20zm7 17-3 8-4 11v2h14l-1-7-5-14z" fill="#050A74"/>
<path transform="translate(364,556)" d="m0 0 12 1 8 4 5 4 5 8v4h-15l-5-5-9-2-8 3-4 7v13l4 6 5 3h9l6-4 3-3h14l1 2-5 9-8 7-10 3h-11l-10-3-7-6-6-12v-18l5-10 8-7 7-3z" fill="#060B74"/>
<path transform="translate(543,556)" d="m0 0h8l8 2 8 7 2 4-1 5h-13l-5-5-5-1-3 3v5l12 5 12 6 4 7v9l-4 6-6 5-5 2h-14l-10-5-5-7-1-5 1-1h14l4 5 7 1 3-2v-5l-4-3-16-6-6-5-2-4v-11l4-6 8-5z" fill="#060B74"/>
<path transform="translate(1076,556)" d="m0 0h8l8 2 6 4 5 9v2l-14 1-3-1-2-4-5-1-4 1v6l6 4 13 5 8 7 1 3v9l-4 6-6 5-10 3-9-1-8-4-6-7-2-6 1-1h14l4 5 7 1 3-2v-5l-6-4-14-5-5-4-3-6v-9l4-7 8-5z" fill="#050A74"/>
<path transform="translate(1558,557)" d="m0 0h14l3 5 10 31 1 7h2l3-11 10-30 2-2h14l-1 5-17 48-2 5-5 1h-12l-3-5-8-21-11-31z" fill="#050A74"/>
<path transform="translate(1214,557)" d="m0 0h36v10l-1 1h-21l1 12h13l5 1v10l-1 1h-17l-1 12h21l1 1v10l-2 1h-33l-1-1z" fill="#0A0F77"/>
<path transform="translate(1458,557)" d="m0 0h36v10l-1 1h-21v13h19v10l-1 1h-15l-3-1v13h21l1 1v10l-16 1h-15l-5-1z" fill="#070C75"/>
<path transform="translate(1899,557)" d="m0 0h35l1 1v9l-1 1h-21v13h19l-1 11h-9l-9-1v12l21 1 1 1v10l-5 1h-30l-1-1z" fill="#070C75"/>
<path transform="translate(1301,557)" d="m0 0h16l2 1 9 22 3-4 8-18 1-1h16l-2 5-17 33-1 20h-14l-1-18-10-21-10-18z" fill="#050A74"/>
<path transform="translate(883,557)" d="m0 0h37l1 1v10h-24v12l17 1 1 10-1 1h-18v23l-4 1-10-1v-57z" fill="#050A74"/>
<path transform="translate(1170,557)" d="m0 0h38v11h-24l1 12h12l5 1v11h-18v23l-5 1h-7l-2-1z" fill="#060B74"/>
<path transform="translate(2e3 557)" d="m0 0h45v10l-1 1h-15v47h-15v-47h-15v-10z" fill="#050A74"/>
<path transform="translate(1255,557)" d="m0 0h44l1 1v9l-2 1h-14v47h-15v-47h-14l-1-9z" fill="#0E1379"/>
<path transform="translate(670,557)" d="m0 0h45v10l-1 1h-15l1 4-1 43-5 1-9-1v-47h-15z" fill="#050A74"/>
<path transform="translate(79,435)" d="m0 0h27l11 6 9 8 1 5-2 2-13 3h-12l-16-4-16-8-7-5v-2l13-4z" fill="#04AA0D"/>
<path transform="translate(523,133)" d="m0 0h13l14 2 15 5 10 6 7 7 3 4-1 4-3 2-7 1h-9l-12-3-12-7-12-11-6-8z" fill="#04AA0D"/>
<path transform="translate(151,427)" d="m0 0 5 2 12 12 8 13 4 14v10l-2 8 1 2-7 1-8-7-5-6-5-14-3-14z" fill="#04AA0D"/>
<path transform="translate(71,37)" d="m0 0 5 4 9 15 4 11 2 12v9l-4 10-4 5-4 1-1-4-6-9-4-10-2-11v-11l3-18z" fill="#04AA0D"/>
<path transform="translate(159,3)" d="m0 0h3l-1 8-3 12-8 16-7 8-14 9-3 1-6-2-1-3 4-14 5-9 7-9 9-8 13-8z" fill="#04AA0D"/>
<path transform="translate(1,176)" d="m0 0 9 3 11 6 11 8 7 9 5 10 1 6v10l-6 1-13-8-6-5-8-11-7-14-4-12z" fill="#04AA0D"/>
<path transform="translate(100,344)" d="m0 0 3 1 5 19 1 14-3 14-5 10-5 5h-2l1 3h-5l-3-5-3-11v-8l3-16 5-12z" fill="#04AA0D"/>
<path transform="translate(14,344)" d="m0 0h20l10 2 11 5 7 6 5 6-1 5-4 2h-20l-15-5-13-8-11-9 1-2z" fill="#04AA0D"/>
<path transform="translate(104,133)" d="m0 0h13l-2 4-9 11-12 9-8 4-13 3h-15l-2-2v-6l2-3h2l2-4 4-4 16-8 13-3z" fill="#04AA0D"/>
<path transform="translate(479,3)" d="m0 0 6 2 13 9 8 7 6 8 6 12 3 11v3l-3 1h-7l-11-7-7-6-8-12-5-14-2-13z" fill="#04AA0D"/>
<path transform="translate(540,435)" d="m0 0h20l17 4 2 1-1 3-14 8-11 5-14 3h-11l-13-3-1-1v-5l7-7 10-6z" fill="#04AA0D"/>
<path transform="translate(486,427)" d="m0 0h2v26l-4 15-5 10-8 9-3 2h-7l1-3-2-7v-13l5-14 7-11z" fill="#04AA0D"/>
<path transform="translate(84,250)" d="m0 0h3v8l-4 15-6 12-9 10-5 4-9 4h-4v2l-3-1v-14l8-15 11-12 12-9z" fill="#04AA0D"/>
<path transform="translate(552,250)" d="m0 0 5 1 12 8 12 11 7 10 4 8-1 13-3 3-10-4-9-7-8-11-5-12-4-18z" fill="#04A90D"/>
<path transform="translate(286,557)" d="m0 0h13l1 47 18 1v10l-7 1h-25l-1-1v-57z" fill="#0A0F76"/>
<path transform="translate(567,37)" d="m0 0 3 1 3 16v21l-3 12-6 11-5 4-9-13-1-6 1-13 4-12 6-11z" fill="#04AA0D"/>
<path transform="translate(70,557)" d="m0 0h13l1 4v43l18 1v10l-2 1h-26l-5-1v-57z" fill="#11167B"/>
<path transform="translate(538,344)" d="m0 0 3 1 9 17 4 13 1 5v15l-6 10-4 3-5-5-5-8-3-9-1-7 1-16 4-15z" fill="#05AA0E"/>
<path transform="translate(634,557)" d="m0 0h13l1 1v47h19v10l-4 1h-22l-7-1z" fill="#060B74"/>
<path transform="translate(606,344)" d="m0 0h21l10 2-1 3-13 10-15 8-12 3h-17l-1-3 7-16 11-5z" fill="#04AA0D"/>
<path transform="translate(637,176)" d="m0 0h2l-3 12-5 12-8 12-9 9-13 7-1-6v-19l9-10 8-7 17-9z" fill="#04AA0D"/>
<path transform="translate(1622,557)" d="m0 0h13l1 1v57l-13 1-1-1z" fill="#050A74"/>
<path transform="translate(720,557)" d="m0 0h13l1 1v57l-4 1-10-1z" fill="#050A74"/>
</svg>
