<svg width="1258" height="330" viewBox="0 0 1258 330" fill="none" xmlns="http://www.w3.org/2000/svg">
<path d="M545.625 13.875H695L693.75 16.375L683.75 29.5L676.25 39.5L668.75 48.875L661.25 58.875L655 67L651.25 67.625H577.5L540.625 68.25L530 70.125L520.625 73.25L511.25 78.25L504.375 83.875L500 88.25L494.375 97L491.25 105.75L490 113.25V121.375L491.875 130.75L495.625 139.5L501.25 147L507.5 152.625L516.875 158.25L526.875 162L536.875 163.875L542.5 164.5L625.625 165.125V136.375H521.25V134.5L529.375 125.125L534.375 118.875L541.25 110.75L546.875 103.875L555.625 93.25L558.125 90.125H688.125L688.75 90.75V217.625H534.375L517.5 215.125L503.125 211.375L491.25 207L479.375 201.375L468.75 194.5L460 187.625L448.75 176.375L441.25 166.375L435.625 156.375L430.625 143.875L427.5 130.75L426.25 122V105.75L428.125 93.875L431.875 80.75L435.625 72L442.5 60.75L448.125 53.875L451.25 50.125L453.125 48.25H454.375L455 46.375L461.875 40.75L470.625 34.5L481.25 28.25L493.125 23.25L509.375 18.25L526.875 15.125L532.5 14.5L545.625 13.875Z" fill="white"/>
<path d="M545.625 13.875H695L693.75 16.375L683.75 29.5L676.25 39.5L668.75 48.875L661.25 58.875L655 67L651.25 67.625H577.5L540.625 68.25L530 70.125L520.625 73.25L511.25 78.25L504.375 83.875L500 88.25L494.375 97L491.25 105.75L490 113.25V121.375L491.875 130.75L495.625 139.5L501.25 147L507.5 152.625L516.875 158.25L526.875 162L536.875 163.875L542.5 164.5L625.625 165.125V136.375H521.25V134.5L529.375 125.125L534.375 118.875L541.25 110.75L546.875 103.875L555.625 93.25L558.125 90.125H688.125L688.75 90.75V217.625H534.375L517.5 215.125L503.125 211.375L491.25 207L479.375 201.375L468.75 194.5L460 187.625L448.75 176.375L441.25 166.375L435.625 156.375L430.625 143.875L427.5 130.75L426.25 122V105.75L428.125 93.875L431.875 80.75L435.625 72L442.5 60.75L448.125 53.875L451.25 50.125L453.125 48.25H454.375L455 46.375L461.875 40.75L470.625 34.5L481.25 28.25L493.125 23.25L509.375 18.25L526.875 15.125L532.5 14.5L545.625 13.875Z" fill="white"/>
<path d="M806.25 13.875H987.5L986.25 16.375L977.5 28.25L968.75 39.5L962.5 47.625L956.875 55.125L950.625 63.25L947.5 67L946.25 67.625H854.375L797.5 68.25L791.25 70.125L787.5 72.625L785.625 76.375L785 82.625L786.25 87.625L789.375 91.375L795 93.875L799.375 94.5L920.625 95.125L938.125 96.375L953.75 99.5L963.75 103.25L972.5 108.25L978.75 113.25L984.375 119.5L989.375 128.875L991.875 137L993.125 145.125V158.875L991.25 170.75L988.125 180.125L983.125 189.5L977.5 196.375L971.875 201.375L965 205.75L956.25 210.125L946.875 213.25L935.625 215.75L921.25 217.625L716.875 218.25V215.75L743.125 182L749.375 173.875L753.75 168.25L756.25 165.125L916.875 164.5L924.375 162.625L928.75 159.5L931.25 153.25V147.625L929.375 142.625L925.625 139.5L921.25 137.625L917.5 137L795 136.375L779.375 135.125L766.875 132.625L755.625 128.875L746.25 123.875L740 118.875L733.75 112.625L728.75 104.5L725.625 97L723.75 89.5L723.125 84.5V70.125L725 58.875L728.125 50.75L732.5 42.625L739.375 34.5L748.125 27.625L758.125 22.625L768.125 18.875L783.125 15.75L792.5 14.5L806.25 13.875Z" fill="white"/>
<path d="M806.25 13.875H987.5L986.25 16.375L977.5 28.25L968.75 39.5L962.5 47.625L956.875 55.125L950.625 63.25L947.5 67L946.25 67.625H854.375L797.5 68.25L791.25 70.125L787.5 72.625L785.625 76.375L785 82.625L786.25 87.625L789.375 91.375L795 93.875L799.375 94.5L920.625 95.125L938.125 96.375L953.75 99.5L963.75 103.25L972.5 108.25L978.75 113.25L984.375 119.5L989.375 128.875L991.875 137L993.125 145.125V158.875L991.25 170.75L988.125 180.125L983.125 189.5L977.5 196.375L971.875 201.375L965 205.75L956.25 210.125L946.875 213.25L935.625 215.75L921.25 217.625L716.875 218.25V215.75L743.125 182L749.375 173.875L753.75 168.25L756.25 165.125L916.875 164.5L924.375 162.625L928.75 159.5L931.25 153.25V147.625L929.375 142.625L925.625 139.5L921.25 137.625L917.5 137L795 136.375L779.375 135.125L766.875 132.625L755.625 128.875L746.25 123.875L740 118.875L733.75 112.625L728.75 104.5L725.625 97L723.75 89.5L723.125 84.5V70.125L725 58.875L728.125 50.75L732.5 42.625L739.375 34.5L748.125 27.625L758.125 22.625L768.125 18.875L783.125 15.75L792.5 14.5L806.25 13.875Z" fill="white"/>
<path d="M1253.75 13.875H1256.25L1255 17L1242.5 33.25L1234.38 43.875L1225.62 55.125L1219.38 63.25L1216.88 67L1215.62 67.625H1084.38V90.75L1245.62 91.375V92.625L1242.5 95.75L1236.25 103.875L1215.62 130.125L1210 137.625L1208.75 138.25H1084.38V165.125H1257.5L1253.75 170.75L1240 188.25L1221.25 212.625L1217.5 217.625H1020.62V14.5L1253.75 13.875Z" fill="white"/>
<path d="M1253.75 13.875H1256.25L1255 17L1242.5 33.25L1234.38 43.875L1225.62 55.125L1219.38 63.25L1216.88 67L1215.62 67.625H1084.38V90.75L1245.62 91.375V92.625L1242.5 95.75L1236.25 103.875L1215.62 130.125L1210 137.625L1208.75 138.25H1084.38V165.125H1257.5L1253.75 170.75L1240 188.25L1221.25 212.625L1217.5 217.625H1020.62V14.5L1253.75 13.875Z" fill="white"/>
<path d="M188.75 63.125H208.75L218.75 65L230 68.75L240.625 74.375L248.125 80L255.625 86.875L260.625 92.5L265 98.75L271.25 110.625L275 123.125L276.25 130.625L276.875 143.125L275.625 155.625L271.25 157.5L265 158.75L265.625 152.5L266.25 145.625H241.875L239.375 165L236.25 166.875L228.125 171.25L228.75 164.375L230.625 153.75L231.25 145L204.375 145.625L203.75 202.5L201.875 210L205.625 200.625L210 192.5L215 186.25L218.75 181.875L226.875 175.625L235.625 170.625L245.625 166.875L259.375 163.75L276.875 159.375L289.375 154.375L298.75 149.375L305.625 144.375L311.875 138.75L318.125 131.875L323.125 123.125L325.625 115.625L326.25 112.5H327.5L328.75 121.25L329.375 130V151.875L328.125 162.5L325.625 175L321.875 186.25L316.875 196.875L310.625 206.25L305 213.125L298.75 219.375L290.625 225.625L281.25 231.25L270.625 236.25L255.625 241.25L240.625 244.375L230.625 245.625L220.625 246.25H211.25L211.875 243.125L217.5 233.75L223.75 225.625L231.875 217.5L240 211.875L250 206.875L266.25 201.25L276.875 195.625L286.875 188.125L288.125 186.875L279.375 191.875L269.375 195.625L259.375 198.125L243.75 201.25L234.375 204.375L225.625 208.75L216.875 215L207.5 224.375L203.125 230.625L200 236.25L196.875 233.125L192.5 226.25L186.875 220L181.25 214.375L171.875 208.125L161.25 203.125L146.875 199.375L136.25 197.5L123.75 193.75L113.75 188.75L109.375 186.25L116.25 191.875L126.25 198.125L136.875 203.125L150 207.5L160.625 213.125L168.125 218.75L172.5 222.5L178.125 229.375L184.375 238.75L187.5 244.375L186.875 246.25H177.5L161.875 245L148.125 242.5L134.375 238.75L122.5 233.75L111.875 228.125L103.125 221.875L95 214.375L89.375 208.125L85 201.875L79.375 191.875L75.625 183.125L71.875 170L70 160L69.375 153.125V127.5L70.625 111.875L71.875 112.5L75 121.875L79.375 130L84.375 136.25L86.875 138.75V140L89.375 141.25L94.375 145.625L103.125 151.25L113.125 156.25L128.125 161.25L150.625 166.25L161.25 170L170 174.375L178.125 180.625L185.625 188.125L191.875 197.5L193.75 201.875V145.625L166.875 145L168.75 160.625L171.25 171.25L168.125 170.625L160 166.25L158.75 163.125L156.875 148.125L156.25 145H131.875L133.125 154.375L133.75 158.75L128.125 158.125L123.125 156.25L121.875 149.375V131.25L123.75 121.25L127.5 110L133.75 98.125L138.75 91.25L144.375 85L150 80L158.125 74.375L170 68.125L179.375 65L188.75 63.125ZM203.75 73.75V100L204.375 100.625L214.375 100L222.5 98.125L223.125 96.875L218.75 88.125L213.75 81.25L208.75 76.25L205 73.75H203.75ZM193.75 73.75L188.125 77.5L182.5 83.75L177.5 91.875L175 97.5L180 99.375L189.375 100.625H194.375V73.75H193.75ZM223.125 76.875L224.375 80L229.375 88.75L232.5 95L235.625 94.375L243.125 91.25L244.375 89.375L236.875 83.75L226.875 78.125L223.125 76.875ZM174.375 76.875L164.375 81.875L156.875 86.875L153.75 90L163.75 95H165.625L171.875 83.125L175.625 77.5L174.375 76.875ZM250.625 97.5L240 102.5L236.25 104.375L239.375 120L241.25 135.625H264.375L266.875 135L265.625 125L261.875 113.75L256.25 103.125L251.875 97.5H250.625ZM145.625 98.125L139.375 107.5L135 117.5L131.875 129.375V135L136.875 135.625H156.25L157.5 131.875L159.375 118.125L161.875 106.875L161.25 103.75L148.125 98.125H145.625ZM171.25 107.5L168.75 116.875L166.875 127.5V135L167.5 135.625H192.5L194.375 134.375V111.25L193.125 110L175 107.5H171.25ZM223.125 107.5L205 110L203.75 110.625V135L204.375 135.625H230L231.25 135V128.125L229.375 115.625L227.5 108.125L226.875 107.5H223.125ZM196.875 211.25L198.125 218.125L199.375 221.25H200V216.25H198.75L198.125 212.5L196.875 211.25Z" fill="white"/>
<path d="M188.75 63.125H208.75L218.75 65L230 68.75L240.625 74.375L248.125 80L255.625 86.875L260.625 92.5L265 98.75L271.25 110.625L275 123.125L276.25 130.625L276.875 143.125L275.625 155.625L271.25 157.5L265 158.75L265.625 152.5L266.25 145.625H241.875L239.375 165L236.25 166.875L228.125 171.25L228.75 164.375L230.625 153.75L231.25 145L204.375 145.625L203.75 202.5L201.875 210L205.625 200.625L210 192.5L215 186.25L218.75 181.875L226.875 175.625L235.625 170.625L245.625 166.875L259.375 163.75L276.875 159.375L289.375 154.375L298.75 149.375L305.625 144.375L311.875 138.75L318.125 131.875L323.125 123.125L325.625 115.625L326.25 112.5H327.5L328.75 121.25L329.375 130V151.875L328.125 162.5L325.625 175L321.875 186.25L316.875 196.875L310.625 206.25L305 213.125L298.75 219.375L290.625 225.625L281.25 231.25L270.625 236.25L255.625 241.25L240.625 244.375L230.625 245.625L220.625 246.25H211.25L211.875 243.125L217.5 233.75L223.75 225.625L231.875 217.5L240 211.875L250 206.875L266.25 201.25L276.875 195.625L286.875 188.125L288.125 186.875L279.375 191.875L269.375 195.625L259.375 198.125L243.75 201.25L234.375 204.375L225.625 208.75L216.875 215L207.5 224.375L203.125 230.625L200 236.25L196.875 233.125L192.5 226.25L186.875 220L181.25 214.375L171.875 208.125L161.25 203.125L146.875 199.375L136.25 197.5L123.75 193.75L113.75 188.75L109.375 186.25L116.25 191.875L126.25 198.125L136.875 203.125L150 207.5L160.625 213.125L168.125 218.75L172.5 222.5L178.125 229.375L184.375 238.75L187.5 244.375L186.875 246.25H177.5L161.875 245L148.125 242.5L134.375 238.75L122.5 233.75L111.875 228.125L103.125 221.875L95 214.375L89.375 208.125L85 201.875L79.375 191.875L75.625 183.125L71.875 170L70 160L69.375 153.125V127.5L70.625 111.875L71.875 112.5L75 121.875L79.375 130L84.375 136.25L86.875 138.75V140L89.375 141.25L94.375 145.625L103.125 151.25L113.125 156.25L128.125 161.25L150.625 166.25L161.25 170L170 174.375L178.125 180.625L185.625 188.125L191.875 197.5L193.75 201.875V145.625L166.875 145L168.75 160.625L171.25 171.25L168.125 170.625L160 166.25L158.75 163.125L156.875 148.125L156.25 145H131.875L133.125 154.375L133.75 158.75L128.125 158.125L123.125 156.25L121.875 149.375V131.25L123.75 121.25L127.5 110L133.75 98.125L138.75 91.25L144.375 85L150 80L158.125 74.375L170 68.125L179.375 65L188.75 63.125ZM203.75 73.75V100L204.375 100.625L214.375 100L222.5 98.125L223.125 96.875L218.75 88.125L213.75 81.25L208.75 76.25L205 73.75H203.75ZM193.75 73.75L188.125 77.5L182.5 83.75L177.5 91.875L175 97.5L180 99.375L189.375 100.625H194.375V73.75H193.75ZM223.125 76.875L224.375 80L229.375 88.75L232.5 95L235.625 94.375L243.125 91.25L244.375 89.375L236.875 83.75L226.875 78.125L223.125 76.875ZM174.375 76.875L164.375 81.875L156.875 86.875L153.75 90L163.75 95H165.625L171.875 83.125L175.625 77.5L174.375 76.875ZM250.625 97.5L240 102.5L236.25 104.375L239.375 120L241.25 135.625H264.375L266.875 135L265.625 125L261.875 113.75L256.25 103.125L251.875 97.5H250.625ZM145.625 98.125L139.375 107.5L135 117.5L131.875 129.375V135L136.875 135.625H156.25L157.5 131.875L159.375 118.125L161.875 106.875L161.25 103.75L148.125 98.125H145.625ZM171.25 107.5L168.75 116.875L166.875 127.5V135L167.5 135.625H192.5L194.375 134.375V111.25L193.125 110L175 107.5H171.25ZM223.125 107.5L205 110L203.75 110.625V135L204.375 135.625H230L231.25 135V128.125L229.375 115.625L227.5 108.125L226.875 107.5H223.125ZM196.875 211.25L198.125 218.125L199.375 221.25H200V216.25H198.75L198.125 212.5L196.875 211.25Z" fill="white"/>
<path d="M188.75 63.125H208.75L218.75 65L230 68.75L240.625 74.375L248.125 80L255.625 86.875L260.625 92.5L265 98.75L271.25 110.625L275 123.125L276.25 130.625L276.875 143.125L275.625 155.625L271.25 157.5L265 158.75L265.625 152.5L266.25 145.625H241.875L239.375 165L236.25 166.875L228.125 171.25L228.75 164.375L230.625 153.75L231.25 145L204.375 145.625L203.75 202.5L201.25 211.875L200 216.25H198.75L194.375 203.125L193.75 145.625L166.875 145L168.75 160.625L171.25 171.25L168.125 170.625L160 166.25L158.75 163.125L156.875 148.125L156.25 145H131.875L133.125 154.375L133.75 158.75L128.125 158.125L123.125 156.25L121.875 149.375V131.25L123.75 121.25L127.5 110L133.75 98.125L138.75 91.25L144.375 85L150 80L158.125 74.375L170 68.125L179.375 65L188.75 63.125ZM203.75 73.75V100L204.375 100.625L214.375 100L222.5 98.125L223.125 96.875L218.75 88.125L213.75 81.25L208.75 76.25L205 73.75H203.75ZM193.75 73.75L188.125 77.5L182.5 83.75L177.5 91.875L175 97.5L180 99.375L189.375 100.625H194.375V73.75H193.75ZM223.125 76.875L224.375 80L229.375 88.75L232.5 95L235.625 94.375L243.125 91.25L244.375 89.375L236.875 83.75L226.875 78.125L223.125 76.875ZM174.375 76.875L164.375 81.875L156.875 86.875L153.75 90L163.75 95H165.625L171.875 83.125L175.625 77.5L174.375 76.875ZM250.625 97.5L240 102.5L236.25 104.375L239.375 120L241.25 135.625H264.375L266.875 135L265.625 125L261.875 113.75L256.25 103.125L251.875 97.5H250.625ZM145.625 98.125L139.375 107.5L135 117.5L131.875 129.375V135L136.875 135.625H156.25L157.5 131.875L159.375 118.125L161.875 106.875L161.25 103.75L148.125 98.125H145.625ZM171.25 107.5L168.75 116.875L166.875 127.5V135L167.5 135.625H192.5L194.375 134.375V111.25L193.125 110L175 107.5H171.25ZM223.125 107.5L205 110L203.75 110.625V135L204.375 135.625H230L231.25 135V128.125L229.375 115.625L227.5 108.125L226.875 107.5H223.125Z" fill="white"/>
<path d="M188.75 63.125H208.75L218.75 65L230 68.75L240.625 74.375L248.125 80L255.625 86.875L260.625 92.5L265 98.75L271.25 110.625L275 123.125L276.25 130.625L276.875 143.125L275.625 155.625L271.25 157.5L265 158.75L265.625 152.5L266.25 145.625H241.875L239.375 165L236.25 166.875L228.125 171.25L228.75 164.375L230.625 153.75L231.25 145L204.375 145.625L203.75 202.5L201.25 211.875L200 216.25H198.75L194.375 203.125L193.75 145.625L166.875 145L168.75 160.625L171.25 171.25L168.125 170.625L160 166.25L158.75 163.125L156.875 148.125L156.25 145H131.875L133.125 154.375L133.75 158.75L128.125 158.125L123.125 156.25L121.875 149.375V131.25L123.75 121.25L127.5 110L133.75 98.125L138.75 91.25L144.375 85L150 80L158.125 74.375L170 68.125L179.375 65L188.75 63.125ZM203.75 73.75V100L204.375 100.625L214.375 100L222.5 98.125L223.125 96.875L218.75 88.125L213.75 81.25L208.75 76.25L205 73.75H203.75ZM193.75 73.75L188.125 77.5L182.5 83.75L177.5 91.875L175 97.5L180 99.375L189.375 100.625H194.375V73.75H193.75ZM223.125 76.875L224.375 80L229.375 88.75L232.5 95L235.625 94.375L243.125 91.25L244.375 89.375L236.875 83.75L226.875 78.125L223.125 76.875ZM174.375 76.875L164.375 81.875L156.875 86.875L153.75 90L163.75 95H165.625L171.875 83.125L175.625 77.5L174.375 76.875ZM250.625 97.5L240 102.5L236.25 104.375L239.375 120L241.25 135.625H264.375L266.875 135L265.625 125L261.875 113.75L256.25 103.125L251.875 97.5H250.625ZM145.625 98.125L139.375 107.5L135 117.5L131.875 129.375V135L136.875 135.625H156.25L157.5 131.875L159.375 118.125L161.875 106.875L161.25 103.75L148.125 98.125H145.625ZM171.25 107.5L168.75 116.875L166.875 127.5V135L167.5 135.625H192.5L194.375 134.375V111.25L193.125 110L175 107.5H171.25ZM223.125 107.5L205 110L203.75 110.625V135L204.375 135.625H230L231.25 135V128.125L229.375 115.625L227.5 108.125L226.875 107.5H223.125Z" fill="white"/>
<path d="M98.75 0H100.625L100 5L98.125 12.5L93.125 22.5L88.75 27.5L80 33.125L73.75 38.75L68.125 45.625L61.875 53.125L54.375 64.375L46.875 77.5L41.25 88.75L47.5 85L55.625 82.5L64.375 81.25H72.5L71.25 83.75L65.625 90.625L58.125 96.25L53.125 98.75L45 100.625H36.875L32.5 116.25L30 129.375L28.75 137.5L28.125 146.25V164.375L28.75 175L29.375 178.75L33.75 170L40.625 162.5L48.125 156.875L51.875 154.375H53.75V159.375L51.25 168.75L47.5 176.25L41.875 182.5L38.75 185L33.125 187.5H30.625L35 205L38.75 216.25L45 230.625L51.875 243.75L52.5 235L55 225.625L60.625 215L61.875 213.125L63.75 213.75L66.875 225.625L67.5 234.375L65.625 243.125L62.5 249.375L59.375 252.5H58.125L62.5 259.375L69.375 267.5L75 273.75L85 283.75L91.875 289.375L98.125 294.375L95 285L93.75 278.125V265L96.875 266.25L104.375 273.75L109.375 281.875L111.875 290.625V296.875L110.625 301.875L113.75 304.375L123.75 309.375L123.125 313.125L122.5 314.375L118.75 313.75L105.625 306.25L93.75 298.125L83.75 290L76.875 283.75L69.375 285H61.875L51.875 282.5L41.875 277.5L37.5 274.375V273.125L45.625 270.625L48.75 270H63.75L55.625 259.375L49.375 250L42.5 238.125L38.125 229.375H25.625L16.25 226.25L8.125 221.25L1.25 215.625L1.875 214.375L8.125 213.125H20.625L26.875 214.375L33.125 217.5L28.125 201.25L25 186.875L23.125 172.5L22.5 160.625V147.5L23.125 140L19.375 138.75L14.375 135L11.25 131.875L6.875 126.25L2.5 117.5L0 110L0.625 108.125L7.5 110.625L16.25 116.25L21.25 120.625L24.375 125.625L29.375 105.625L33.75 92.5L40.625 76.875L48.75 61.875L44.375 55L41.875 48.75L40.625 41.875V35L42.5 23.75L43.75 21.25L46.875 23.75L52.5 33.125L55 40L56.875 50.625L61.875 44.375L69.375 35.625L73.75 30.625L76.25 21.875L79.375 16.25L83.75 10.625L89.375 5.625L97.5 0.625L98.75 0Z" fill="white"/>
<path d="M98.75 0H100.625L100 5L98.125 12.5L93.125 22.5L88.75 27.5L80 33.125L73.75 38.75L68.125 45.625L61.875 53.125L54.375 64.375L46.875 77.5L41.25 88.75L47.5 85L55.625 82.5L64.375 81.25H72.5L71.25 83.75L65.625 90.625L58.125 96.25L53.125 98.75L45 100.625H36.875L32.5 116.25L30 129.375L28.75 137.5L28.125 146.25V164.375L28.75 175L29.375 178.75L33.75 170L40.625 162.5L48.125 156.875L51.875 154.375H53.75V159.375L51.25 168.75L47.5 176.25L41.875 182.5L38.75 185L33.125 187.5H30.625L35 205L38.75 216.25L45 230.625L51.875 243.75L52.5 235L55 225.625L60.625 215L61.875 213.125L63.75 213.75L66.875 225.625L67.5 234.375L65.625 243.125L62.5 249.375L59.375 252.5H58.125L62.5 259.375L69.375 267.5L75 273.75L85 283.75L91.875 289.375L98.125 294.375L95 285L93.75 278.125V265L96.875 266.25L104.375 273.75L109.375 281.875L111.875 290.625V296.875L110.625 301.875L113.75 304.375L123.75 309.375L123.125 313.125L122.5 314.375L118.75 313.75L105.625 306.25L93.75 298.125L83.75 290L76.875 283.75L69.375 285H61.875L51.875 282.5L41.875 277.5L37.5 274.375V273.125L45.625 270.625L48.75 270H63.75L55.625 259.375L49.375 250L42.5 238.125L38.125 229.375H25.625L16.25 226.25L8.125 221.25L1.25 215.625L1.875 214.375L8.125 213.125H20.625L26.875 214.375L33.125 217.5L28.125 201.25L25 186.875L23.125 172.5L22.5 160.625V147.5L23.125 140L19.375 138.75L14.375 135L11.25 131.875L6.875 126.25L2.5 117.5L0 110L0.625 108.125L7.5 110.625L16.25 116.25L21.25 120.625L24.375 125.625L29.375 105.625L33.75 92.5L40.625 76.875L48.75 61.875L44.375 55L41.875 48.75L40.625 41.875V35L42.5 23.75L43.75 21.25L46.875 23.75L52.5 33.125L55 40L56.875 50.625L61.875 44.375L69.375 35.625L73.75 30.625L76.25 21.875L79.375 16.25L83.75 10.625L89.375 5.625L97.5 0.625L98.75 0Z" fill="white"/>
<path d="M298.75 0L302.5 1.25L310.625 6.875L315.625 11.25L319.375 16.25L323.125 23.75L325 30.625L330.625 36.875L336.875 43.75L342.5 51.25V46.25L344.375 37.5L349.375 27.5L353.75 21.25L355.625 21.875L357.5 31.875V45L355.625 52.5L351.875 59.375L350 61.25L351.25 64.375L358.75 78.125L366.25 96.25L370 108.125L373.125 121.875V126.25H374.375L375.625 123.125L383.125 115.625L391.875 110.625L397.5 108.125H398.75L396.875 115.625L393.75 123.125L388.75 130.625L383.125 136.25L376.25 140V160.625L375.625 172.5L373.125 190L369.375 205.625L365.625 216.875L374.375 213.75L378.125 213.125H391.25L397.5 214.375L396.875 216.25L388.75 222.5L379.375 227.5L371.875 229.375H360.625L352.5 245L348.125 251.875L340 263.75L334.375 270V270.625L336.875 270H349.375L360 272.5L361.25 273.125L360.625 275L351.875 280L345 283.125L336.25 285H329.375L324.375 283.75L321.25 284.375L315 290L308.125 295.625L296.875 303.75L280.625 313.125L278.125 314.375L275.625 313.75L275 310L277.5 308.125L286.25 303.75L288.125 301.875L286.875 297.5V289.375L290 280.625L294.375 273.75L303.125 265H304.375V281.25L301.875 290.625L300.625 294.375L311.25 285.625L319.375 278.125L328.75 268.75L335.625 260L339.375 254.375V252.5L336.25 249.375L333.125 243.125L331.875 239.375L331.25 235L331.875 225L334.375 215.625L335.625 213.125L337.5 213.75L343.125 224.375L345.625 232.5L346.25 235.625V243.125L345.625 244.375H346.875L348.125 241.25L354.375 229.375L359.375 217.5L364.375 202.5L367.5 189.375L368.125 188.125L361.875 186.25L355 181.25L350 174.375L346.875 166.875L344.375 155.625V154.375L347.5 155L355 160L362.5 166.875L366.875 173.125L369.375 178.125L370.625 161.875V150.625L369.375 134.375L366.875 120L362.5 102.5L361.875 100.625H352.5L345 98.75L337.5 94.375L330 87.5L326.25 82.5V81.25H334.375L343.125 82.5L352.5 85.625L356.875 88.125L350.625 75L342.5 61.25L333.75 49.375L325.625 40L318.125 32.5L311.875 28.75L307.5 25L302.5 17.5L299.375 8.75L298.125 0.625L298.75 0Z" fill="white"/>
<path d="M298.75 0L302.5 1.25L310.625 6.875L315.625 11.25L319.375 16.25L323.125 23.75L325 30.625L330.625 36.875L336.875 43.75L342.5 51.25V46.25L344.375 37.5L349.375 27.5L353.75 21.25L355.625 21.875L357.5 31.875V45L355.625 52.5L351.875 59.375L350 61.25L351.25 64.375L358.75 78.125L366.25 96.25L370 108.125L373.125 121.875V126.25H374.375L375.625 123.125L383.125 115.625L391.875 110.625L397.5 108.125H398.75L396.875 115.625L393.75 123.125L388.75 130.625L383.125 136.25L376.25 140V160.625L375.625 172.5L373.125 190L369.375 205.625L365.625 216.875L374.375 213.75L378.125 213.125H391.25L397.5 214.375L396.875 216.25L388.75 222.5L379.375 227.5L371.875 229.375H360.625L352.5 245L348.125 251.875L340 263.75L334.375 270V270.625L336.875 270H349.375L360 272.5L361.25 273.125L360.625 275L351.875 280L345 283.125L336.25 285H329.375L324.375 283.75L321.25 284.375L315 290L308.125 295.625L296.875 303.75L280.625 313.125L278.125 314.375L275.625 313.75L275 310L277.5 308.125L286.25 303.75L288.125 301.875L286.875 297.5V289.375L290 280.625L294.375 273.75L303.125 265H304.375V281.25L301.875 290.625L300.625 294.375L311.25 285.625L319.375 278.125L328.75 268.75L335.625 260L339.375 254.375V252.5L336.25 249.375L333.125 243.125L331.875 239.375L331.25 235L331.875 225L334.375 215.625L335.625 213.125L337.5 213.75L343.125 224.375L345.625 232.5L346.25 235.625V243.125L345.625 244.375H346.875L348.125 241.25L354.375 229.375L359.375 217.5L364.375 202.5L367.5 189.375L368.125 188.125L361.875 186.25L355 181.25L350 174.375L346.875 166.875L344.375 155.625V154.375L347.5 155L355 160L362.5 166.875L366.875 173.125L369.375 178.125L370.625 161.875V150.625L369.375 134.375L366.875 120L362.5 102.5L361.875 100.625H352.5L345 98.75L337.5 94.375L330 87.5L326.25 82.5V81.25H334.375L343.125 82.5L352.5 85.625L356.875 88.125L350.625 75L342.5 61.25L333.75 49.375L325.625 40L318.125 32.5L311.875 28.75L307.5 25L302.5 17.5L299.375 8.75L298.125 0.625L298.75 0Z" fill="white"/>
<path d="M98.75 0H100.625L100 5L98.125 12.5L93.125 22.5L88.75 27.5L80 33.125L73.75 38.75L68.125 45.625L61.875 53.125L54.375 64.375L46.875 77.5L41.25 88.75L47.5 85L55.625 82.5L64.375 81.25H72.5L71.25 83.75L65.625 90.625L58.125 96.25L53.125 98.75L45 100.625H36.875L32.5 116.25L30 129.375L28.125 140H27.5L26.25 130.625L25 127.5L25.625 120.625L29.375 105.625L33.75 92.5L40.625 76.875L48.75 61.875L44.375 55L41.875 48.75L40.625 41.875V35L42.5 23.75L43.75 21.25L46.875 23.75L52.5 33.125L55 40L56.875 50.625L61.875 44.375L69.375 35.625L73.75 30.625L76.25 21.875L79.375 16.25L83.75 10.625L89.375 5.625L97.5 0.625L98.75 0Z" fill="white"/>
<path d="M98.75 0H100.625L100 5L98.125 12.5L93.125 22.5L88.75 27.5L80 33.125L73.75 38.75L68.125 45.625L61.875 53.125L54.375 64.375L46.875 77.5L41.25 88.75L47.5 85L55.625 82.5L64.375 81.25H72.5L71.25 83.75L65.625 90.625L58.125 96.25L53.125 98.75L45 100.625H36.875L32.5 116.25L30 129.375L28.125 140H27.5L26.25 130.625L25 127.5L25.625 120.625L29.375 105.625L33.75 92.5L40.625 76.875L48.75 61.875L44.375 55L41.875 48.75L40.625 41.875V35L42.5 23.75L43.75 21.25L46.875 23.75L52.5 33.125L55 40L56.875 50.625L61.875 44.375L69.375 35.625L73.75 30.625L76.25 21.875L79.375 16.25L83.75 10.625L89.375 5.625L97.5 0.625L98.75 0Z" fill="white"/>
<path d="M48.75 270H65.625L72.5 273.75L78.125 278.75L78.75 281.875L77.5 283.125L69.375 285H61.875L51.875 282.5L41.875 277.5L37.5 274.375V273.125L45.625 270.625L48.75 270Z" fill="white"/>
<path d="M48.75 270H65.625L72.5 273.75L78.125 278.75L78.75 281.875L77.5 283.125L69.375 285H61.875L51.875 282.5L41.875 277.5L37.5 274.375V273.125L45.625 270.625L48.75 270Z" fill="white"/>
<path d="M326.25 81.25H334.375L343.125 82.5L352.5 85.625L358.75 89.375L363.125 93.75L365 96.25L364.375 98.75L362.5 100L358.125 100.625H352.5L345 98.75L337.5 94.375L330 87.5L326.25 82.5V81.25Z" fill="white"/>
<path d="M326.25 81.25H334.375L343.125 82.5L352.5 85.625L358.75 89.375L363.125 93.75L365 96.25L364.375 98.75L362.5 100L358.125 100.625H352.5L345 98.75L337.5 94.375L330 87.5L326.25 82.5V81.25Z" fill="white"/>
<path d="M93.75 265L96.875 266.25L104.375 273.75L109.375 281.875L111.875 290.625V296.875L110.625 301.875L111.25 303.125L106.875 303.75L101.875 299.375L98.75 295.625L95.625 286.875L93.75 278.125V265Z" fill="white"/>
<path d="M93.75 265L96.875 266.25L104.375 273.75L109.375 281.875L111.875 290.625V296.875L110.625 301.875L111.25 303.125L106.875 303.75L101.875 299.375L98.75 295.625L95.625 286.875L93.75 278.125V265Z" fill="white"/>
<path d="M43.75 21.25L46.875 23.75L52.5 33.125L55 40L56.25 47.5V53.125L53.75 59.375L51.25 62.5L48.75 63.125L48.125 60.625L44.375 55L41.875 48.75L40.625 41.875V35L42.5 23.75L43.75 21.25Z" fill="white"/>
<path d="M43.75 21.25L46.875 23.75L52.5 33.125L55 40L56.25 47.5V53.125L53.75 59.375L51.25 62.5L48.75 63.125L48.125 60.625L44.375 55L41.875 48.75L40.625 41.875V35L42.5 23.75L43.75 21.25Z" fill="white"/>
<path d="M98.75 0H100.625L100 5L98.125 12.5L93.125 22.5L88.75 27.5L80 33.125L78.125 33.75L74.375 32.5L73.75 30.625L76.25 21.875L79.375 16.25L83.75 10.625L89.375 5.625L97.5 0.625L98.75 0Z" fill="white"/>
<path d="M98.75 0H100.625L100 5L98.125 12.5L93.125 22.5L88.75 27.5L80 33.125L78.125 33.75L74.375 32.5L73.75 30.625L76.25 21.875L79.375 16.25L83.75 10.625L89.375 5.625L97.5 0.625L98.75 0Z" fill="white"/>
<path d="M0 108.125L5.625 110L12.5 113.75L19.375 118.75L23.75 124.375L26.875 130.625L27.5 134.375V140.625L23.75 141.25L15.625 136.25L11.875 133.125L6.875 126.25L2.5 117.5L0 110V108.125Z" fill="white"/>
<path d="M0 108.125L5.625 110L12.5 113.75L19.375 118.75L23.75 124.375L26.875 130.625L27.5 134.375V140.625L23.75 141.25L15.625 136.25L11.875 133.125L6.875 126.25L2.5 117.5L0 110V108.125Z" fill="white"/>
<path d="M61.875 213.125L63.75 213.75L66.875 225.625L67.5 234.375L65.625 243.125L62.5 249.375L59.375 252.5H58.125L58.75 254.375H55.625L53.75 251.25L51.875 244.375V239.375L53.75 229.375L56.875 221.875L61.875 213.125Z" fill="white"/>
<path d="M61.875 213.125L63.75 213.75L66.875 225.625L67.5 234.375L65.625 243.125L62.5 249.375L59.375 252.5H58.125L58.75 254.375H55.625L53.75 251.25L51.875 244.375V239.375L53.75 229.375L56.875 221.875L61.875 213.125Z" fill="white"/>
<path d="M8.125 213.125H20.625L26.875 214.375L33.75 217.5L38.125 221.25L41.25 225L40.625 228.125L38.125 229.375H25.625L16.25 226.25L8.125 221.25L1.25 215.625L1.875 214.375L8.125 213.125Z" fill="white"/>
<path d="M8.125 213.125H20.625L26.875 214.375L33.75 217.5L38.125 221.25L41.25 225L40.625 228.125L38.125 229.375H25.625L16.25 226.25L8.125 221.25L1.25 215.625L1.875 214.375L8.125 213.125Z" fill="white"/>
<path d="M64.375 81.25H72.5L71.25 83.75L65.625 90.625L58.125 96.25L53.125 98.75L45 100.625H35.625L34.375 99.375V95.625L35.625 93.75H36.875L38.125 91.25L40.625 88.75L50.625 83.75L58.75 81.875L64.375 81.25Z" fill="white"/>
<path d="M64.375 81.25H72.5L71.25 83.75L65.625 90.625L58.125 96.25L53.125 98.75L45 100.625H35.625L34.375 99.375V95.625L35.625 93.75H36.875L38.125 91.25L40.625 88.75L50.625 83.75L58.75 81.875L64.375 81.25Z" fill="white"/>
<path d="M298.75 0L302.5 1.25L310.625 6.875L315.625 11.25L319.375 16.25L323.125 23.75L325 30.625V32.5L323.125 33.125H318.75L311.875 28.75L307.5 25L302.5 17.5L299.375 8.75L298.125 0.625L298.75 0Z" fill="white"/>
<path d="M298.75 0L302.5 1.25L310.625 6.875L315.625 11.25L319.375 16.25L323.125 23.75L325 30.625V32.5L323.125 33.125H318.75L311.875 28.75L307.5 25L302.5 17.5L299.375 8.75L298.125 0.625L298.75 0Z" fill="white"/>
<path d="M336.875 270H349.375L360 272.5L361.25 273.125L360.625 275L351.875 280L345 283.125L336.25 285H329.375L321.25 283.125L320.625 282.5V279.375L325 275L331.25 271.25L336.875 270Z" fill="white"/>
<path d="M336.875 270H349.375L360 272.5L361.25 273.125L360.625 275L351.875 280L345 283.125L336.25 285H329.375L321.25 283.125L320.625 282.5V279.375L325 275L331.25 271.25L336.875 270Z" fill="white"/>
<path d="M303.125 265H304.375V281.25L301.875 290.625L298.75 296.875L293.75 302.5L291.875 303.75H287.5L288.125 301.875L286.875 297.5V289.375L290 280.625L294.375 273.75L303.125 265Z" fill="white"/>
<path d="M303.125 265H304.375V281.25L301.875 290.625L298.75 296.875L293.75 302.5L291.875 303.75H287.5L288.125 301.875L286.875 297.5V289.375L290 280.625L294.375 273.75L303.125 265Z" fill="white"/>
<path d="M51.875 154.375H53.75V159.375L51.25 168.75L47.5 176.25L41.875 182.5L38.75 185L33.125 187.5H30.625V188.75L28.75 188.125V179.375L33.75 170L40.625 162.5L48.125 156.875L51.875 154.375Z" fill="white"/>
<path d="M51.875 154.375H53.75V159.375L51.25 168.75L47.5 176.25L41.875 182.5L38.75 185L33.125 187.5H30.625V188.75L28.75 188.125V179.375L33.75 170L40.625 162.5L48.125 156.875L51.875 154.375Z" fill="white"/>
<path d="M344.375 154.375L347.5 155L355 160L362.5 166.875L366.875 173.125L369.375 178.125L368.75 186.25L366.875 188.125L360.625 185.625L355 181.25L350 174.375L346.875 166.875L344.375 155.625V154.375Z" fill="white"/>
<path d="M344.375 154.375L347.5 155L355 160L362.5 166.875L366.875 173.125L369.375 178.125L368.75 186.25L366.875 188.125L360.625 185.625L355 181.25L350 174.375L346.875 166.875L344.375 155.625V154.375Z" fill="white"/>
<path d="M353.75 21.25L355.625 21.875L357.5 31.875V45L355.625 52.5L351.875 59.375L348.75 61.875L343.125 53.75L342.5 50L343.125 41.875L345.625 34.375L349.375 27.5L353.75 21.25Z" fill="white"/>
<path d="M353.75 21.25L355.625 21.875L357.5 31.875V45L355.625 52.5L351.875 59.375L348.75 61.875L343.125 53.75L342.5 50L343.125 41.875L345.625 34.375L349.375 27.5L353.75 21.25Z" fill="white"/>
<path d="M335.625 213.125L337.5 213.75L343.125 224.375L345.625 232.5L346.25 235.625V245L342.5 251.25L340 253.125L336.875 250L333.75 245L331.875 239.375L331.25 235L331.875 225L334.375 215.625L335.625 213.125Z" fill="white"/>
<path d="M335.625 213.125L337.5 213.75L343.125 224.375L345.625 232.5L346.25 235.625V245L342.5 251.25L340 253.125L336.875 250L333.75 245L331.875 239.375L331.25 235L331.875 225L334.375 215.625L335.625 213.125Z" fill="white"/>
<path d="M378.125 213.125H391.25L397.5 214.375L396.875 216.25L388.75 222.5L379.375 227.5L371.875 229.375H361.25L360.625 227.5L365 217.5L371.875 214.375L378.125 213.125Z" fill="white"/>
<path d="M378.125 213.125H391.25L397.5 214.375L396.875 216.25L388.75 222.5L379.375 227.5L371.875 229.375H361.25L360.625 227.5L365 217.5L371.875 214.375L378.125 213.125Z" fill="white"/>
<path d="M397.5 108.125H398.75L396.875 115.625L393.75 123.125L388.75 130.625L383.125 136.25L375 140.625L374.375 136.875V125L380 118.75L385 114.375L395.625 108.75L397.5 108.125Z" fill="white"/>
<path d="M397.5 108.125H398.75L396.875 115.625L393.75 123.125L388.75 130.625L383.125 136.25L375 140.625L374.375 136.875V125L380 118.75L385 114.375L395.625 108.75L397.5 108.125Z" fill="white"/>
<path d="M468.617 314V266.727H501.579V276.006H480.043V285.701H499.894V295.003H480.043V304.721H501.579V314H468.617ZM531.424 286.024V294.703H509.542V286.024H531.424ZM539.394 314V266.727H550.819V304.721H570.486V314H539.394ZM576.401 314V266.727H609.362V276.006H587.826V285.701H607.677V295.003H587.826V304.721H609.362V314H576.401ZM626.743 314H614.463L630.413 266.727H645.625L661.575 314H649.295L638.192 278.638H637.823L626.743 314ZM625.104 295.396H650.772V304.075H625.104V295.396ZM666.664 314V266.727H686.192C689.731 266.727 692.786 267.366 695.356 268.643C697.941 269.905 699.934 271.721 701.334 274.091C702.734 276.445 703.434 279.238 703.434 282.469C703.434 285.747 702.719 288.532 701.288 290.825C699.857 293.103 697.825 294.842 695.194 296.042C692.563 297.227 689.447 297.819 685.846 297.819H673.497V288.817H683.722C685.446 288.817 686.884 288.594 688.038 288.148C689.208 287.686 690.093 286.994 690.693 286.07C691.293 285.132 691.593 283.931 691.593 282.469C691.593 281.008 691.293 279.8 690.693 278.846C690.093 277.876 689.208 277.153 688.038 276.676C686.869 276.183 685.43 275.937 683.722 275.937H678.09V314H666.664ZM693.278 292.395L705.05 314H692.586L681.045 292.395H693.278ZM749.934 266.727V314H740.239L721.427 286.717H721.127V314H709.701V266.727H719.534L738.139 293.964H738.531V266.727H749.934ZM768.544 266.727V314H757.118V266.727H768.544ZM815.95 266.727V314H806.255L787.443 286.717H787.143V314H775.717V266.727H785.55L804.154 293.964H804.547V266.727H815.95ZM854.157 282.169C853.895 281.2 853.51 280.346 853.003 279.607C852.495 278.853 851.871 278.215 851.133 277.691C850.394 277.168 849.548 276.776 848.594 276.514C847.64 276.237 846.593 276.099 845.455 276.099C843.162 276.099 841.177 276.653 839.499 277.761C837.837 278.869 836.552 280.484 835.645 282.608C834.737 284.716 834.283 287.278 834.283 290.294C834.283 293.326 834.721 295.911 835.598 298.05C836.476 300.189 837.745 301.82 839.407 302.944C841.069 304.067 843.085 304.629 845.455 304.629C847.547 304.629 849.317 304.29 850.764 303.613C852.225 302.92 853.333 301.943 854.087 300.681C854.841 299.42 855.218 297.935 855.218 296.227L857.342 296.48H845.847V288.148H866.229V294.403C866.229 298.635 865.329 302.259 863.528 305.275C861.743 308.291 859.281 310.607 856.142 312.223C853.018 313.838 849.425 314.646 845.362 314.646C840.854 314.646 836.891 313.669 833.475 311.715C830.059 309.761 827.396 306.975 825.488 303.359C823.58 299.727 822.626 295.419 822.626 290.433C822.626 286.555 823.203 283.116 824.357 280.115C825.511 277.099 827.119 274.545 829.182 272.452C831.259 270.359 833.659 268.774 836.383 267.697C839.122 266.62 842.069 266.081 845.224 266.081C847.963 266.081 850.51 266.473 852.864 267.258C855.234 268.043 857.327 269.151 859.142 270.582C860.974 272.013 862.459 273.714 863.597 275.683C864.736 277.653 865.444 279.815 865.721 282.169H854.157ZM886.928 314V266.727H906.456C909.995 266.727 913.049 267.42 915.619 268.805C918.205 270.174 920.197 272.09 921.598 274.552C922.998 276.999 923.698 279.846 923.698 283.093C923.698 286.355 922.983 289.21 921.551 291.656C920.136 294.088 918.112 295.973 915.481 297.311C912.849 298.65 909.726 299.32 906.109 299.32H894.06V290.317H903.986C905.709 290.317 907.148 290.017 908.302 289.417C909.472 288.817 910.356 287.978 910.957 286.901C911.557 285.809 911.857 284.539 911.857 283.093C911.857 281.631 911.557 280.369 910.957 279.307C910.356 278.23 909.472 277.399 908.302 276.814C907.133 276.23 905.694 275.937 903.986 275.937H898.354V314H886.928ZM929.33 314V266.727H940.756V304.721H960.422V314H929.33ZM977.197 314H964.917L980.867 266.727H996.079L1012.03 314H999.749L988.646 278.638H988.277L977.197 314ZM975.558 295.396H1001.23V304.075H975.558V295.396ZM1009.67 276.006V266.727H1049.62V276.006H1035.29V314H1024.03V276.006H1009.67ZM1055.2 314V266.727H1087.47V276.006H1066.63V285.701H1085.42V295.003H1066.63V314H1055.2ZM1137.84 290.364C1137.84 295.565 1136.84 299.974 1134.84 303.59C1132.84 307.206 1130.14 309.953 1126.72 311.83C1123.32 313.708 1119.5 314.646 1115.27 314.646C1111.02 314.646 1107.2 313.7 1103.8 311.807C1100.4 309.914 1097.7 307.168 1095.7 303.567C1093.71 299.951 1092.72 295.549 1092.72 290.364C1092.72 285.162 1093.71 280.754 1095.7 277.137C1097.7 273.521 1100.4 270.774 1103.8 268.897C1107.2 267.02 1111.02 266.081 1115.27 266.081C1119.5 266.081 1123.32 267.02 1126.72 268.897C1130.14 270.774 1132.84 273.521 1134.84 277.137C1136.84 280.754 1137.84 285.162 1137.84 290.364ZM1126.17 290.364C1126.17 287.286 1125.73 284.685 1124.85 282.562C1123.99 280.438 1122.74 278.83 1121.11 277.738C1119.49 276.645 1117.55 276.099 1115.27 276.099C1113.01 276.099 1111.06 276.645 1109.43 277.738C1107.8 278.83 1106.55 280.438 1105.67 282.562C1104.81 284.685 1104.38 287.286 1104.38 290.364C1104.38 293.441 1104.81 296.042 1105.67 298.165C1106.55 300.289 1107.8 301.897 1109.43 302.99C1111.06 304.082 1113.01 304.629 1115.27 304.629C1117.55 304.629 1119.49 304.082 1121.11 302.99C1122.74 301.897 1123.99 300.289 1124.85 298.165C1125.73 296.042 1126.17 293.441 1126.17 290.364ZM1144.52 314V266.727H1164.04C1167.58 266.727 1170.64 267.366 1173.21 268.643C1175.79 269.905 1177.79 271.721 1179.19 274.091C1180.59 276.445 1181.29 279.238 1181.29 282.469C1181.29 285.747 1180.57 288.532 1179.14 290.825C1177.71 293.103 1175.68 294.842 1173.05 296.042C1170.41 297.227 1167.3 297.819 1163.7 297.819H1151.35V288.817H1161.57C1163.3 288.817 1164.74 288.594 1165.89 288.148C1167.06 287.686 1167.94 286.994 1168.54 286.07C1169.14 285.132 1169.44 283.931 1169.44 282.469C1169.44 281.008 1169.14 279.8 1168.54 278.846C1167.94 277.876 1167.06 277.153 1165.89 276.676C1164.72 276.183 1163.28 275.937 1161.57 275.937H1155.94V314H1144.52ZM1171.13 292.395L1182.9 314H1170.44L1158.9 292.395H1171.13ZM1187.55 266.727H1201.7L1213.71 295.996H1214.26L1226.26 266.727H1240.41V314H1229.29V284.962H1228.89L1217.54 313.7H1210.43L1199.07 284.801H1198.68V314H1187.55V266.727Z" fill="white"/>
</svg>
