<svg width="221" height="55" viewBox="0 0 221 55" fill="none" xmlns="http://www.w3.org/2000/svg">
<path d="M31.844 0.875H71.3778L71.047 1.53665L68.4004 5.01034L66.4154 7.65695L64.4305 10.1382L62.4455 12.7848L60.7914 14.9352L59.7989 15.1006H40.2801L30.5207 15.266L27.7086 15.7622L25.2274 16.5893L22.7462 17.9126L20.9267 19.4013L19.7688 20.5592L18.2801 22.875L17.453 25.1908L17.1222 27.1758V29.3261L17.6184 31.8073L18.6109 34.1231L20.0996 36.1081L21.7538 37.5968L24.235 39.0855L26.8816 40.078L29.5282 40.5742L31.0169 40.7397L53.0169 40.9051V33.2961H25.3929V32.7998L27.5432 30.3186L28.8665 28.6645L30.6861 26.5141L32.1748 24.6945L34.4906 21.8825L35.1523 21.0555H69.5583L69.7237 21.2209V54.7998H28.8665L24.4004 54.1382L20.5959 53.1457L17.453 51.9878L14.3102 50.4991L11.4981 48.6795L9.18233 46.86L6.20489 43.8825L4.21992 41.2359L2.7312 38.5893L1.40789 35.281L0.580827 31.8073L0.25 29.4915V25.1908L0.746241 22.0479L1.73872 18.5742L2.7312 16.2585L4.55075 13.281L6.03947 11.4615L6.86654 10.469L7.36278 9.97274H7.69361L7.85902 9.4765L9.67857 7.98778L11.9944 6.33365L14.8064 4.67951L17.9492 3.3562L22.25 2.03289L26.8816 1.20583L28.3703 1.04041L31.844 0.875Z" fill="white"/>
<path d="M31.844 0.875H71.3778L71.047 1.53665L68.4004 5.01034L66.4154 7.65696L64.4305 10.1382L62.4455 12.7848L60.7914 14.9352L59.7989 15.1006H40.2801L30.5207 15.266L27.7086 15.7622L25.2274 16.5893L22.7462 17.9126L20.9267 19.4013L19.7688 20.5592L18.2801 22.875L17.453 25.1908L17.1222 27.1758V29.3261L17.6184 31.8073L18.6109 34.1231L20.0996 36.1081L21.7538 37.5968L24.235 39.0855L26.8816 40.078L29.5282 40.5742L31.0169 40.7397L53.0169 40.9051V33.2961H25.3929V32.7998L27.5432 30.3186L28.8665 28.6645L30.6861 26.5141L32.1748 24.6945L34.4906 21.8825L35.1523 21.0555H69.5583L69.7237 21.2209V54.7998H28.8665L24.4004 54.1382L20.5959 53.1457L17.453 51.9878L14.3101 50.4991L11.4981 48.6795L9.18233 46.86L6.20489 43.8825L4.21992 41.2359L2.7312 38.5893L1.40789 35.281L0.580827 31.8073L0.25 29.4915V25.1908L0.746241 22.0479L1.73872 18.5742L2.7312 16.2585L4.55075 13.281L6.03947 11.4615L6.86654 10.469L7.36278 9.97274H7.69361L7.85902 9.4765L9.67857 7.98778L11.9944 6.33365L14.8064 4.67951L17.9492 3.3562L22.25 2.03289L26.8816 1.20583L28.3703 1.04041L31.844 0.875Z" fill="white"/>
<path d="M100.821 0.875H148.791L148.46 1.53665L146.145 4.67951L143.829 7.65695L142.175 9.80733L140.686 11.7923L139.032 13.9427L138.205 14.9352L137.874 15.1006H113.558L98.5056 15.266L96.8514 15.7622L95.859 16.4239L95.3627 17.4164L95.1973 19.0705L95.5281 20.3938L96.3552 21.3863L97.8439 22.0479L99.0018 22.2133L131.092 22.3788L135.724 22.7096L139.859 23.5367L142.506 24.5291L144.821 25.8524L146.476 27.1758L147.964 28.8299L149.288 31.3111L149.949 33.4615L150.28 35.6118V39.2509L149.784 42.3938L148.957 44.875L147.633 47.3562L146.145 49.1758L144.656 50.4991L142.836 51.657L140.521 52.8148L138.039 53.6419L135.062 54.3036L131.257 54.7998L77.1672 54.9652V54.3036L84.1146 45.3712L85.7687 43.2209L86.9266 41.7321L87.5883 40.9051L130.1 40.7397L132.085 40.2434L133.242 39.4164L133.904 37.7622V36.2735L133.408 34.9502L132.415 34.1231L131.257 33.6269L130.265 33.4615L97.8439 33.2961L93.7086 32.9652L90.4003 32.3036L87.4229 31.3111L84.9417 29.9878L83.2875 28.6645L81.6334 27.0103L80.3101 24.86L79.483 22.875L78.9868 20.89L78.8214 19.5667V15.7622L79.3176 12.7848L80.1447 10.6344L81.3026 8.48402L83.1221 6.33365L85.4379 4.5141L88.0845 3.19079L90.7311 2.19831L94.7011 1.37124L97.1823 1.04041L100.821 0.875Z" fill="white"/>
<path d="M100.821 0.875H148.791L148.46 1.53665L146.145 4.67951L143.829 7.65695L142.175 9.80733L140.686 11.7923L139.032 13.9427L138.205 14.9352L137.874 15.1006H113.558L98.5056 15.266L96.8514 15.7622L95.859 16.4239L95.3627 17.4164L95.1973 19.0705L95.5281 20.3938L96.3552 21.3863L97.8439 22.0479L99.0018 22.2133L131.092 22.3788L135.724 22.7096L139.859 23.5367L142.506 24.5291L144.821 25.8524L146.476 27.1758L147.964 28.8299L149.288 31.3111L149.949 33.4615L150.28 35.6118V39.2509L149.784 42.3938L148.957 44.875L147.633 47.3562L146.145 49.1758L144.656 50.4991L142.836 51.657L140.521 52.8148L138.039 53.6419L135.062 54.3036L131.257 54.7998L77.1672 54.9652V54.3036L84.1146 45.3712L85.7687 43.2209L86.9266 41.7321L87.5883 40.9051L130.1 40.7397L132.085 40.2434L133.242 39.4164L133.904 37.7622V36.2735L133.408 34.9502L132.415 34.1231L131.257 33.6269L130.265 33.4615L97.8439 33.2961L93.7086 32.9652L90.4003 32.3036L87.4229 31.3111L84.9417 29.9878L83.2875 28.6645L81.6334 27.0103L80.3101 24.86L79.483 22.875L78.9868 20.89L78.8214 19.5667V15.7622L79.3176 12.7848L80.1447 10.6344L81.3026 8.48402L83.1221 6.33365L85.4379 4.5141L88.0845 3.19079L90.7311 2.19831L94.7011 1.37124L97.1823 1.04041L100.821 0.875Z" fill="white"/>
<path d="M219.258 0.875H219.919L219.588 1.70207L216.28 6.00282L214.13 8.81485L211.814 11.7923L210.16 13.9427L209.498 14.9352L209.167 15.1006H174.431V21.2209L217.107 21.3863V21.7171L216.28 22.5442L214.626 24.6945L209.167 31.6419L207.679 33.6269L207.348 33.7923H174.431V40.9051H220.25L219.258 42.3938L215.619 47.0254L210.656 53.4765L209.664 54.7998H157.558V1.04041L219.258 0.875Z" fill="white"/>
<path d="M219.258 0.875H219.919L219.588 1.70207L216.28 6.00282L214.13 8.81485L211.814 11.7923L210.16 13.9427L209.498 14.9352L209.167 15.1006H174.431V21.2209L217.107 21.3863V21.7171L216.28 22.5442L214.626 24.6945L209.167 31.6419L207.679 33.6269L207.348 33.7923H174.431V40.9051H220.25L219.258 42.3938L215.619 47.0254L210.656 53.4765L209.664 54.7998H157.558V1.04041L219.258 0.875Z" fill="white"/>
</svg>
